Genre:Mystery
Language: English  http://www.imdb.com/title/tt1098360/
Source:DVD

General
Complete name :The.Next.Hit.2008.DvDRip.XviD.Ac3.Feel-Free
Format : AVI
Format/Info : Audio Video Interleave
File size : 1.45 GiB
Duration : 1h 47mn
Overall bit rate : 1 929 Kbps
Video #0
ID : 0
Format : MPEG-4 Visual
Format profile : AdvancedSimple@L5
Format settings, BVOP : Yes
Format settings, QPel : No
Format settings, GMC : No warppoints
Format settings, Matrix : Default (H.263)
Muxing mode : Packed bitstream
Codec ID : XVID
Codec ID/Hint : XviD
Duration : 1h 47mn
Bit rate : 1 661 Kbps
Width : 652 pixels
Height : 352 pixels
Display aspect ratio : 1.852
Frame rate : 29.970 fps
Resolution : 24 bits
Colorimetry : 4:2:0
Scan type : Progressive
Bits/(Pixel*Frame) : 0.241
Stream size : 1.24 GiB (86%)
Writing library : XviD 1.2.1 (UTC 2008-12-04)
Audio #1
ID : 1
Format : AC-3
Format/Info : Audio Coding 3
Codec ID : 2000
Duration : 1h 47mn
Bit rate mode : Constant
Bit rate : 256 Kbps
Channel(s) : 6 channels
Channel positions : Front: L C R, Surround: L R, LFE
Sampling rate : 48.0 KHz
Stream size : 196 MiB (13%)
Alignment : Split accross interleaves
Interleave, duration : 33 ms (1.00 video frame)
Interleave, preload duration : 500 ms

Plot
The Next Hit" is a mystery suspense thriller about a record company that takes an unorthodox approach